<svg width="24" height="24" viewBox="0 0 24 24" fill="none" xmlns="http://www.w3.org/2000/svg">
<g clip-path="url(#clip0_1459_241914)">
<path fill-rule="evenodd" clip-rule="evenodd" d="M16.8423 6.54781C15.6033 5.36611 13.9498 4.72235 12.239 4.74881C9.10839 4.74881 6.44957 6.86086 5.50155 9.70486V9.70493C4.99889 11.1953 4.99889 12.8091 5.50155 14.2994H5.50595C6.45837 17.139 9.11279 19.2511 12.2434 19.2511C13.8594 19.2511 15.2468 18.8378 16.3221 18.1077V18.1047C17.5875 17.2669 18.4518 15.9486 18.7207 14.4582H12.239V9.83722H23.5578C23.6989 10.6397 23.765 11.4599 23.765 12.2756C23.765 15.9254 22.4606 19.0112 20.1911 21.1012L20.1934 21.103C18.2048 22.9373 15.4755 24 12.239 24C7.7018 24 3.55262 21.4426 1.5155 17.3904V17.3904C-0.186487 13.9996 -0.186483 10.0048 1.51552 6.61398H1.51554L1.5155 6.61395C3.55261 2.55737 7.7018 -4.58262e-05 12.239 -4.58262e-05C15.2197 -0.0353205 18.099 1.08465 20.2684 3.12176L16.8423 6.54781Z" fill="#717680"/>
</g>
<defs>
<clipPath id="clip0_1459_241914">
<rect width="24" height="24" fill="white"/>
</clipPath>
</defs>
</svg>
