<svg width="119" height="32" viewBox="0 0 119 32" fill="none" xmlns="http://www.w3.org/2000/svg">
<g clip-path="url(#clip0_1894_485083)">
<g clip-path="url(#clip1_1894_485083)">
<path d="M31.0622 24.8372C28.6759 24.8372 26.5965 23.9619 24.8815 22.2333C23.1692 20.5074 22.3007 18.4193 22.3007 16.0295C22.3007 13.6396 23.1637 11.5542 24.865 9.82837C26.5719 8.11895 28.654 7.25464 31.0622 7.25464C33.4484 7.25464 35.5278 8.12444 37.2401 9.84208C38.9552 11.5597 39.8236 13.6423 39.8236 16.0295C39.8236 18.4386 38.9606 20.5321 37.2566 22.247C35.5525 23.9674 33.4676 24.8372 31.0622 24.8372ZM31.0622 12.1716C29.9992 12.1716 29.128 12.542 28.3965 13.3021C27.6568 14.0676 27.3006 14.9621 27.3006 16.0322C27.3006 17.105 27.6595 18.0023 28.3965 18.776C29.128 19.5471 29.9992 19.9202 31.0622 19.9202C32.1224 19.9202 32.9936 19.5471 33.7279 18.776C34.4648 17.9995 34.8237 17.1023 34.8237 16.0322C34.8237 14.9621 34.4648 14.0703 33.7279 13.3048C32.9964 12.542 32.1224 12.1716 31.0622 12.1716Z" fill="white"/>
<path d="M48.0512 2.34326H42.7444V24.5931H48.0512V2.34326Z" fill="white"/>
<path d="M68.9027 24.8368C66.4753 24.8368 64.3849 23.967 62.6918 22.2493C60.9987 20.5344 60.1412 18.4518 60.1412 16.062C60.1412 13.6117 61.0152 11.5017 62.7411 9.79501C64.4452 8.11029 66.5192 7.25696 68.9027 7.25696C70.7136 7.25696 72.3683 7.77829 73.8204 8.80174C75.2696 9.8252 76.3272 11.1889 76.9655 12.8489L77.1381 13.3016L72.2752 14.7038L72.119 14.3443C71.8286 13.6693 71.3903 13.1206 70.8204 12.7145C70.2533 12.3084 69.6232 12.1108 68.8999 12.1108C67.8397 12.1108 66.9712 12.495 66.2397 13.2824C65.5 14.0782 65.1411 14.9891 65.1411 16.062C65.1411 17.1348 65.5 18.0375 66.2397 18.825C66.9712 19.6043 67.8424 19.9829 68.9027 19.9829C69.6451 19.9829 70.278 19.7854 70.8369 19.382C71.3985 18.9732 71.8314 18.4326 72.1245 17.7769L72.2807 17.4229L77.1408 18.825L76.9655 19.2777C76.3272 20.9186 75.2751 22.2685 73.8395 23.292C72.3957 24.3154 70.7355 24.8368 68.9027 24.8368Z" fill="white"/>
<path d="M87.579 24.8368C85.2887 24.8368 83.2915 23.9587 81.6367 22.2274C79.9874 20.5015 79.1518 18.4272 79.1518 16.062C79.1518 13.6144 79.9819 11.5099 81.623 9.80325C83.2695 8.11304 85.2722 7.25696 87.579 7.25696C89.0804 7.25696 90.4228 7.65482 91.5844 8.4423V7.53134H96.8912V24.5926H91.5844V23.6981C90.4365 24.4554 89.0941 24.8368 87.579 24.8368ZM88.0064 12.141C86.9051 12.141 86.0065 12.5197 85.2668 13.2989C84.5188 14.0864 84.1545 14.9891 84.1545 16.0592C84.1545 17.1293 84.5161 18.0266 85.264 18.8031C86.0065 19.5741 86.9023 19.95 88.0064 19.95C89.0722 19.95 89.9653 19.5686 90.7379 18.7839C91.5132 17.9991 91.8885 17.1074 91.8885 16.0592C91.8885 15.0111 91.5105 14.1138 90.7351 13.3181C89.9625 12.5279 89.0694 12.141 88.0064 12.141Z" fill="white"/>
<path d="M103.168 31.0003L105.899 24.0611L99.072 7.53217H104.732L108.622 17.6103L112.316 7.53217H117.97L108.691 31.0003H103.168Z" fill="white"/>
<path d="M6.32317 3.50696H1V8.83825H6.32317V3.50696Z" fill="white"/>
<path d="M14.312 10.1743V11.9414C13.1011 12.5148 11.7477 12.8386 10.3176 12.8386C8.8875 12.8386 7.53411 12.5148 6.32317 11.9414V10.1743H1V24.8374H6.32591V17.2699C7.53685 17.8434 8.89024 18.1671 10.3203 18.1671C11.7505 18.1671 13.1039 17.8434 14.3148 17.2699V24.8374H19.6407V10.1743H14.312Z" fill="white"/>
<path d="M19.6352 3.50696H14.312V8.83825H19.6352V3.50696Z" fill="white"/>
<path d="M56.9772 10.1743H51.6512V24.8374H56.9772V10.1743Z" fill="white"/>
<path d="M56.9744 3.50696H51.6512V8.84099H56.9744V3.50696Z" fill="white"/>
</g>
</g>
<defs>
<clipPath id="clip0_1894_485083">
<rect width="117" height="30" fill="white" transform="translate(1 1)"/>
</clipPath>
<clipPath id="clip1_1894_485083">
<rect width="117.188" height="30" fill="white" transform="translate(1 1)"/>
</clipPath>
</defs>
</svg>
